<?xml version="1.0" encoding="UTF-8"?>
<!DOCTYPE svg PUBLIC "-//W3C//DTD SVG 1.1//EN" "http://www.w3.org/Graphics/SVG/1.1/DTD/svg11.dtd">
<!-- Creator: CorelDRAW -->
<svg xmlns="http://www.w3.org/2000/svg" xml:space="preserve" width="2048px" height="2048px" style="shape-rendering:geometricPrecision; text-rendering:geometricPrecision; image-rendering:optimizeQuality; fill-rule:evenodd; clip-rule:evenodd"
viewBox="0 0 2048 2048"
 xmlns:xlink="http://www.w3.org/1999/xlink">
 <defs>
  <style type="text/css">
   <![CDATA[
    .fil2 {fill:none}
    .fil1 {fill:#00897B}
    .fil5 {fill:#01579B}
    .fil4 {fill:#1F1F1F}
    .fil9 {fill:#212121}
    .fil0 {fill:#4DB6AC}
    .fil8 {fill:#B19A75}
    .fil10 {fill:#E2CDAA}
    .fil6 {fill:#E88103}
    .fil7 {fill:#FB8C00}
    .fil3 {fill:#FFD3AE}
    .fil11 {fill:#616161;fill-rule:nonzero}
   ]]>
  </style>
   <clipPath id="id0">
    <path d="M1024 0c565.539,0 1024,458.461 1024,1024 0,565.539 -458.461,1024 -1024,1024 -565.539,0 -1024,-458.461 -1024,-1024 0,-565.539 458.461,-1024 1024,-1024z"/>
   </clipPath>
 </defs>
 <g id="Layer_x0020_1">
  <metadata id="CorelCorpID_0Corel-Layer"/>
  <path class="fil0" d="M1024 0c565.539,0 1024,458.461 1024,1024 0,565.539 -458.461,1024 -1024,1024 -565.539,0 -1024,-458.461 -1024,-1024 0,-565.539 458.461,-1024 1024,-1024z"/>
  <g style="clip-path:url(#id0)">
   <g id="_478219720">
    <g>
     <polygon id="_3871949921" class="fil1" points="1301.22,605.934 2437.1,1741.82 2440.59,1745.86 2444.06,1749.95 2447.5,1754.09 2450.92,1758.28 2454.32,1762.52 2457.69,1766.81 2461.04,1771.15 2464.37,1775.53 2467.67,1779.97 1331.79,644.088 1328.49,639.651 1325.16,635.263 1321.81,630.924 1318.44,626.634 1315.04,622.394 1311.62,618.204 1308.18,614.064 1304.71,609.974 "/>
     <polygon id="_387187360" class="fil1" points="1346.86,642.143 2482.75,1778.03 2483.55,1779.04 2484.25,1779.97 2484.85,1780.84 2485.34,1781.65 2485.75,1782.43 2486.06,1783.19 2486.29,1783.93 2486.44,1784.68 2486.52,1785.45 2486.52,1786.25 2486.46,1787.1 2486.34,1788.01 2486.16,1788.99 2485.94,1790.06 2485.66,1791.23 2485.34,1792.52 1349.46,656.639 1349.78,655.351 1350.05,654.179 1350.28,653.109 1350.46,652.126 1350.58,651.219 1350.64,650.372 1350.64,649.57 1350.56,648.802 1350.41,648.052 1350.18,647.306 1349.87,646.551 1349.46,645.772 1348.97,644.956 1348.37,644.089 1347.67,643.156 "/>
     <polygon id="_387200752" class="fil1" points="1368.93,649.171 2504.81,1785.05 2506.04,1786.47 2506.94,1788.11 2507.55,1789.94 2507.9,1791.94 2508,1794.09 2507.89,1796.36 2507.59,1798.73 2507.14,1801.18 2506.55,1803.68 2505.86,1806.2 2505.08,1808.73 2504.26,1811.23 2503.41,1813.7 2502.56,1816.09 2501.74,1818.39 1365.86,682.509 1366.68,680.208 1367.53,677.815 1368.38,675.352 1369.2,672.846 1369.98,670.319 1370.67,667.795 1371.26,665.297 1371.71,662.851 1372.01,660.479 1372.12,658.208 1372.02,656.058 1371.67,654.056 1371.06,652.225 1370.16,650.588 "/>
     <polygon id="_387214312" class="fil1" points="1365.86,682.509 2501.74,1818.39 2501.4,1819.36 2501.04,1820.34 2500.69,1821.31 2500.32,1822.28 2499.96,1823.25 2499.58,1824.22 2499.21,1825.19 2498.83,1826.16 1362.95,690.278 1363.33,689.31 1363.7,688.34 1364.07,687.369 1364.44,686.398 1364.8,685.426 1365.16,684.454 1365.52,683.482 "/>
     <polygon id="_387203392" class="fil1" points="1362.95,690.278 2498.83,1826.16 2499.18,1826.73 2499.52,1827.29 2499.87,1827.86 2500.22,1828.42 2500.56,1828.99 2500.91,1829.56 2501.26,1830.13 2501.6,1830.7 1365.72,694.814 1365.38,694.244 1365.03,693.676 1364.68,693.108 1364.34,692.54 1363.99,691.974 1363.64,691.408 1363.29,690.843 "/>
     <polygon id="_387190912" class="fil1" points="1365.72,694.814 2501.6,1830.7 2502.23,1832.01 2502.57,1833.39 2502.64,1834.78 2502.44,1836.15 2501.98,1837.45 2501.28,1838.65 2500.34,1839.71 2499.17,1840.59 1363.29,704.706 1364.46,703.83 1365.4,702.771 1366.1,701.568 1366.55,700.263 1366.75,698.895 1366.69,697.505 1366.35,696.132 "/>
     <polygon id="_387205192" class="fil1" points="1363.29,704.706 2499.17,1840.59 2498.38,1841 2497.57,1841.31 2496.74,1841.51 2495.89,1841.62 2495.05,1841.62 2494.22,1841.53 2493.4,1841.34 2492.61,1841.05 1356.73,705.171 1357.52,705.454 1358.34,705.643 1359.17,705.738 1360.01,705.735 1360.85,705.632 1361.69,705.429 1362.5,705.121 "/>
     <polygon id="_387198040" class="fil1" points="1356.73,705.171 2492.61,1841.05 2492.11,1842.23 2491.6,1843.41 2491.1,1844.58 2490.61,1845.73 2490.12,1846.88 2489.63,1848.03 2489.15,1849.16 2488.68,1850.28 1352.8,714.397 1353.27,713.275 1353.75,712.143 1354.24,711.002 1354.73,709.851 1355.22,708.693 1355.72,707.526 1356.23,706.352 "/>
     <polygon id="_387205168" class="fil1" points="1352.8,714.397 2488.68,1850.28 2488.56,1850.55 2488.43,1850.81 2488.29,1851.07 2488.15,1851.31 2487.99,1851.54 2487.82,1851.77 2487.65,1851.98 2487.47,1852.19 1351.58,716.307 1351.77,716.101 1351.94,715.884 1352.11,715.659 1352.27,715.425 1352.41,715.183 1352.55,714.93 1352.68,714.669 "/>
     <polygon id="_387211792" class="fil1" points="1351.58,716.307 2487.47,1852.19 2486.48,1857.21 2484.99,1862.65 2483.02,1868.47 2480.59,1874.64 2477.73,1881.13 2474.46,1887.9 2470.81,1894.93 2466.79,1902.17 2462.43,1909.6 2457.75,1917.18 2452.78,1924.89 2447.54,1932.68 2442.05,1940.53 2436.34,1948.4 2430.43,1956.26 2424.34,1964.08 2418.09,1971.82 2411.72,1979.45 2405.23,1986.94 2398.67,1994.26 2392.04,2001.38 2385.37,2008.25 2378.69,2014.85 2372.02,2021.15 2365.38,2027.11 2358.79,2032.7 2352.28,2037.89 2345.88,2042.64 2339.6,2046.93 2333.46,2050.71 2327.5,2053.96 2321.73,2056.65 1185.85,920.763 1191.62,918.079 1197.58,914.828 1203.72,911.044 1210,906.76 1216.4,902.007 1222.91,896.819 1229.5,891.229 1236.14,885.268 1242.81,878.97 1249.49,872.368 1256.16,865.494 1262.79,858.381 1269.35,851.062 1275.84,843.569 1282.21,835.935 1288.45,828.193 1294.54,820.377 1300.46,812.516 1306.17,804.646 1311.66,796.798 1316.9,789.007 1321.87,781.302 1326.55,773.719 1330.9,766.29 1334.93,759.047 1338.58,752.023 1341.85,745.25 1344.71,738.762 1347.14,732.591 1349.11,726.769 1350.6,721.33 "/>
     <polygon id="_387189496" class="fil1" points="1185.85,920.763 2321.73,2056.65 2322.24,2058.06 2322.74,2059.44 2323.23,2060.78 2323.7,2062.07 2324.16,2063.31 2324.6,2064.51 2325.03,2065.64 2325.45,2066.72 2325.84,2067.73 2326.22,2068.68 2326.58,2069.56 2326.91,2070.36 2327.23,2071.08 2327.52,2071.73 2327.79,2072.28 2328.03,2072.75 1192.15,936.869 1191.9,936.401 1191.64,935.844 1191.34,935.201 1191.03,934.477 1190.69,933.675 1190.34,932.799 1189.96,931.852 1189.57,930.837 1189.15,929.761 1188.72,928.624 1188.28,927.432 1187.82,926.187 1187.35,924.895 1186.86,923.557 1186.36,922.178 "/>
     <polygon id="_387207928" class="fil1" points="1192.15,936.869 2328.03,2072.75 2327.94,2072.79 2327.68,2072.89 2327.24,2073.06 2326.64,2073.29 2325.86,2073.6 2324.92,2073.97 2323.81,2074.4 2322.54,2074.91 2321.1,2075.47 2319.51,2076.1 2317.75,2076.8 2315.84,2077.56 2313.77,2078.38 2311.55,2079.26 2309.18,2080.21 2306.66,2081.21 1170.77,945.331 1173.3,944.324 1175.67,943.378 1177.89,942.494 1179.96,941.674 1181.87,940.915 1183.63,940.221 1185.22,939.59 1186.66,939.024 1187.93,938.522 1189.04,938.087 1189.98,937.717 1190.76,937.412 1191.36,937.176 1191.8,937.006 1192.06,936.903 "/>
     <polygon id="_387191632" class="fil1" points="1170.77,945.331 2306.66,2081.21 2305.45,2081.7 2304.24,2082.18 2303.04,2082.67 2301.84,2083.16 2300.64,2083.66 2299.45,2084.15 2298.25,2084.65 2297.06,2085.15 2295.87,2085.65 2294.68,2086.14 2293.49,2086.64 2292.3,2087.14 2291.11,2087.64 2289.93,2088.14 2288.74,2088.63 2287.56,2089.13 2286.38,2089.62 2285.19,2090.11 2284.01,2090.6 2282.83,2091.09 2281.65,2091.57 2280.47,2092.06 2279.29,2092.53 2278.1,2093.01 2276.92,2093.48 2275.74,2093.94 2274.56,2094.41 2273.38,2094.86 2272.19,2095.32 2271.01,2095.76 2269.82,2096.21 2268.64,2096.64 1132.76,960.76 1133.94,960.324 1135.13,959.883 1136.31,959.435 1137.5,958.983 1138.68,958.526 1139.86,958.063 1141.04,957.596 1142.22,957.126 1143.41,956.651 1144.59,956.173 1145.77,955.691 1146.95,955.207 1148.13,954.72 1149.31,954.23 1150.49,953.739 1151.68,953.245 1152.86,952.75 1154.05,952.253 1155.23,951.755 1156.42,951.258 1157.61,950.76 1158.79,950.261 1159.99,949.763 1161.18,949.265 1162.37,948.767 1163.56,948.271 1164.76,947.776 1165.96,947.283 1167.16,946.791 1168.36,946.302 1169.57,945.816 "/>
     <polygon id="_387200080" class="fil1" points="700.198,661.821 1836.08,1797.7 1837.06,1798.7 1837.96,1799.63 1838.77,1800.46 702.889,664.574 702.081,663.752 701.183,662.819 "/>
     <polygon id="_387186112" class="fil1" points="689.163,714.616 1825.04,1850.5 1824.14,1851.64 1823.06,1852.56 1821.84,1853.23 1820.53,1853.66 1819.15,1853.83 1817.77,1853.73 1816.4,1853.36 1815.09,1852.7 679.214,716.821 680.517,717.478 681.884,717.851 683.273,717.948 684.645,717.779 685.961,717.353 687.179,716.677 688.26,715.762 "/>
     <polygon id="_387193960" class="fil1" points="1174.26,1241.73 2310.14,2377.61 2310.09,2377.72 2309.92,2378.02 2309.64,2378.52 2309.25,2379.18 2308.74,2380.01 2308.13,2380.98 2307.4,2382.08 2306.57,2383.29 1170.68,1247.41 1171.52,1246.2 1172.25,1245.1 1172.86,1244.13 1173.36,1243.3 1173.76,1242.64 1174.04,1242.14 1174.2,1241.83 "/>
     <polygon id="_387196528" class="fil1" points="1055.65,1183.65 2191.53,2319.53 2191.24,2332.65 1055.36,1196.76 "/>
     <polygon id="_387192688" class="fil1" points="964.066,1136.71 2099.95,2272.59 2099.45,2272.3 2098.96,2272.02 2098.46,2271.73 2097.97,2271.43 2097.49,2271.13 2097,2270.83 2096.52,2270.52 2096.04,2270.21 960.157,1134.33 960.637,1134.64 961.12,1134.95 961.605,1135.25 962.092,1135.55 962.583,1135.84 963.075,1136.13 963.569,1136.42 "/>
     <polygon id="_387200992" class="fil1" points="1055.36,1196.76 2191.24,2332.65 2167.43,2403.54 1031.55,1267.66 "/>
     <polygon id="_387193192" class="fil1" points="1031.55,1267.66 2167.43,2403.54 2167.22,2403.6 2166.59,2403.77 2165.59,2404.04 2164.23,2404.4 2162.55,2404.82 2160.58,2405.31 2158.33,2405.83 2155.85,2406.39 1019.97,1270.51 1022.45,1269.95 1024.69,1269.42 1026.67,1268.94 1028.35,1268.52 1029.71,1268.16 1030.71,1267.89 1031.34,1267.72 "/>
     <polygon id="_387205984" class="fil1" points="1019.97,1270.51 2155.85,2406.39 2155.02,2408.06 2154.16,2409.74 2153.27,2411.43 2152.35,2413.13 2151.4,2414.83 2150.43,2416.53 2149.44,2418.23 2148.44,2419.93 2147.42,2421.62 2146.39,2423.3 2145.35,2424.97 2144.31,2426.62 2143.27,2428.26 2142.23,2429.88 2141.2,2431.47 2140.18,2433.05 2139.16,2434.59 2138.17,2436.11 2137.19,2437.59 2136.23,2439.04 2135.3,2440.45 2134.39,2441.82 2133.51,2443.15 2132.67,2444.43 2131.87,2445.67 2131.1,2446.85 2130.38,2447.98 2129.71,2449.06 2129.08,2450.08 2128.51,2451.04 2127.99,2451.93 2127.53,2452.77 991.653,1316.88 992.111,1316.05 992.628,1315.16 993.2,1314.2 993.826,1313.18 994.501,1312.1 995.222,1310.97 995.987,1309.78 996.791,1308.55 997.633,1307.26 998.508,1305.94 999.414,1304.57 1000.35,1303.15 1001.31,1301.71 1002.29,1300.22 1003.28,1298.71 1004.29,1297.16 1005.32,1295.59 1006.35,1294 1007.39,1292.38 1008.43,1290.74 1009.47,1289.08 1010.51,1287.42 1011.54,1285.73 1012.56,1284.05 1013.56,1282.35 1014.55,1280.65 1015.52,1278.95 1016.47,1277.25 1017.39,1275.55 1018.28,1273.86 1019.14,1272.18 "/>
     <polygon id="_387197320" class="fil1" points="1222.56,1453.75 2358.44,2589.63 2358.6,2591.63 2358.77,2593.63 2358.96,2595.64 2359.16,2597.65 2359.37,2599.66 2359.59,2601.66 2359.82,2603.66 2360.06,2605.66 2360.3,2607.65 2360.56,2609.63 2360.82,2611.6 2361.09,2613.56 2361.36,2615.5 2361.64,2617.43 2361.92,2619.34 2362.21,2621.22 2362.49,2623.09 2362.78,2624.94 2363.07,2626.76 2363.36,2628.56 2363.65,2630.32 2363.93,2632.06 2364.22,2633.77 2364.5,2635.44 2364.77,2637.08 2365.04,2638.68 2365.31,2640.25 2365.57,2641.77 2365.82,2643.25 2366.06,2644.69 2366.3,2646.08 2366.52,2647.43 1230.64,1511.55 1230.41,1510.2 1230.18,1508.81 1229.94,1507.37 1229.69,1505.89 1229.43,1504.36 1229.16,1502.8 1228.89,1501.2 1228.62,1499.56 1228.34,1497.89 1228.05,1496.18 1227.77,1494.44 1227.48,1492.67 1227.19,1490.88 1226.9,1489.06 1226.61,1487.21 1226.33,1485.34 1226.04,1483.45 1225.76,1481.54 1225.48,1479.62 1225.21,1477.67 1224.94,1475.72 1224.68,1473.75 1224.42,1471.77 1224.17,1469.78 1223.94,1467.78 1223.71,1465.78 1223.49,1463.77 1223.28,1461.77 1223.08,1459.76 1222.89,1457.75 1222.72,1455.75 "/>
     <polygon id="_387212968" class="fil1" points="1237.43,1514.08 2373.32,2649.96 2373.84,2650.93 2374.55,2652.14 2375.41,2653.56 2376.43,2655.16 2377.59,2656.92 2378.87,2658.81 2380.25,2660.81 2381.74,2662.89 2383.31,2665.03 2384.95,2667.21 2386.64,2669.38 2388.38,2671.54 2390.15,2673.66 2391.94,2675.71 2393.73,2677.66 2395.51,2679.49 1259.62,1543.61 1257.85,1541.78 1256.06,1539.83 1254.27,1537.78 1252.5,1535.66 1250.76,1533.5 1249.07,1531.32 1247.43,1529.15 1245.86,1527.01 1244.37,1524.93 1242.98,1522.93 1241.71,1521.03 1240.55,1519.27 1239.53,1517.67 1238.67,1516.26 1237.96,1515.05 "/>
     <polygon id="_387185968" class="fil1" points="1325.85,1568.07 2461.73,2703.95 2462.2,2704.52 2462.52,2705.07 2462.74,2705.6 2462.89,2706.11 2463.01,2706.59 2463.14,2707.06 2463.32,2707.49 1327.44,1571.61 1327.26,1571.17 1327.13,1570.71 1327.01,1570.23 1326.86,1569.72 1326.64,1569.19 1326.32,1568.64 "/>
     <polygon id="_387210616" class="fil1" points="1236.91,1513.31 2372.8,2649.19 2373.32,2649.96 1237.43,1514.08 "/>
     <polygon id="_387196504" class="fil1" points="1088.75,1268.69 2224.63,2404.57 2223.85,2404.42 2223.17,2404.29 2222.57,2404.17 2222.08,2404.07 2221.69,2403.99 2221.4,2403.93 2221.23,2403.89 2221.17,2403.88 1085.29,1268 1085.35,1268.01 1085.52,1268.05 1085.8,1268.1 1086.2,1268.19 1086.69,1268.29 1087.28,1268.4 1087.97,1268.54 "/>
     <polygon id="_387199624" class="fil1" points="1170.68,1247.41 2306.57,2383.29 2307.87,2386.13 2309.18,2389.02 2310.49,2391.94 2311.81,2394.9 2313.14,2397.89 2314.47,2400.91 2315.79,2403.97 2317.12,2407.05 2318.44,2410.15 2319.76,2413.28 2321.08,2416.43 2322.38,2419.6 2323.68,2422.78 2324.97,2425.98 2326.25,2429.18 2327.51,2432.39 2328.76,2435.61 2329.99,2438.84 2331.21,2442.06 2332.4,2445.28 2333.58,2448.5 2334.73,2451.72 2335.85,2454.92 2336.96,2458.12 2338.03,2461.3 2339.08,2464.46 2340.09,2467.61 2341.08,2470.74 2342.03,2473.84 2342.95,2476.92 2343.83,2479.97 2344.67,2483 1208.79,1347.11 1207.94,1344.09 1207.06,1341.04 1206.15,1337.96 1205.2,1334.85 1204.21,1331.73 1203.2,1328.58 1202.15,1325.41 1201.08,1322.23 1199.97,1319.04 1198.85,1315.83 1197.69,1312.62 1196.52,1309.4 1195.32,1306.18 1194.11,1302.95 1192.88,1299.73 1191.63,1296.51 1190.37,1293.3 1189.09,1290.09 1187.8,1286.9 1186.5,1283.72 1185.2,1280.55 1183.88,1277.4 1182.56,1274.27 1181.24,1271.17 1179.91,1268.08 1178.58,1265.03 1177.26,1262.01 1175.93,1259.01 1174.61,1256.06 1173.29,1253.13 1171.99,1250.25 "/>
     <polygon id="_387189928" class="fil1" points="1208.79,1347.11 2344.67,2483 2345.05,2484.44 2345.41,2485.86 2345.74,2487.28 2346.05,2488.69 2346.33,2490.09 2346.59,2491.48 2346.83,2492.86 2347.05,2494.22 2347.24,2495.58 2347.42,2496.92 2347.58,2498.26 2347.71,2499.58 2347.83,2500.89 2347.93,2502.18 2348.01,2503.47 2348.08,2504.74 1212.2,1368.86 1212.13,1367.59 1212.05,1366.3 1211.95,1365 1211.83,1363.69 1211.7,1362.37 1211.54,1361.04 1211.36,1359.7 1211.17,1358.34 1210.95,1356.97 1210.71,1355.6 1210.45,1354.21 1210.16,1352.81 1209.86,1351.4 1209.52,1349.98 1209.17,1348.55 "/>
     <polygon id="_387190120" class="fil1" points="1259.62,1543.61 2395.51,2679.49 2396.42,2680.36 1260.54,1544.48 "/>
     <polygon id="_387195352" class="fil1" points="991.653,1316.88 2127.53,2452.77 2126.55,2454.57 2125.56,2456.35 2124.56,2458.11 2123.55,2459.84 2122.53,2461.56 2121.5,2463.25 2120.47,2464.92 2119.43,2466.57 2118.38,2468.2 2117.33,2469.81 2116.28,2471.41 2115.22,2472.99 2114.17,2474.56 2113.11,2476.12 2112.05,2477.66 2110.99,2479.19 2109.93,2480.71 2108.87,2482.22 2107.82,2483.72 2106.77,2485.22 2105.72,2486.7 2104.68,2488.19 2103.64,2489.67 2102.61,2491.14 2101.59,2492.61 2100.57,2494.08 2099.56,2495.55 2098.56,2497.02 2097.58,2498.49 2096.6,2499.96 2095.63,2501.44 2094.68,2502.92 2094.46,2503.27 2094.24,2503.63 2094.02,2504 2093.79,2504.38 2093.57,2504.78 2093.34,2505.18 2093.11,2505.6 2092.88,2506.03 956.998,1370.15 957.23,1369.72 957.459,1369.3 957.687,1368.9 957.913,1368.5 958.137,1368.12 958.36,1367.75 958.581,1367.39 958.8,1367.04 959.753,1365.56 960.718,1364.08 961.694,1362.61 962.683,1361.14 963.681,1359.67 964.689,1358.2 965.704,1356.73 966.727,1355.26 967.758,1353.78 968.795,1352.31 969.838,1350.82 970.886,1349.33 971.937,1347.84 972.991,1346.34 974.048,1344.83 975.107,1343.31 976.166,1341.78 977.226,1340.23 978.285,1338.68 979.344,1337.11 980.398,1335.53 981.452,1333.93 982.501,1332.32 983.546,1330.68 984.585,1329.03 985.619,1327.36 986.646,1325.67 987.666,1323.96 988.677,1322.23 989.678,1320.47 990.672,1318.69 "/>
     <polygon id="_387202792" class="fil1" points="1327.44,1571.61 2463.32,2707.49 2463.9,2709.37 2463.64,2711.07 2462.58,2712.58 2460.79,2713.93 2458.32,2715.11 2455.2,2716.15 2451.5,2717.03 2447.27,2717.78 2442.55,2718.4 2437.4,2718.9 2431.86,2719.29 2426,2719.57 2419.85,2719.76 2413.48,2719.86 2406.93,2719.88 2400.25,2719.83 2393.49,2719.71 2386.71,2719.55 2379.95,2719.33 2373.27,2719.08 2366.72,2718.79 2360.35,2718.48 2354.2,2718.16 2348.33,2717.84 2342.8,2717.51 2337.65,2717.2 2332.93,2716.9 2328.69,2716.64 2324.99,2716.41 2321.87,2716.22 2319.39,2716.08 2317.6,2716 1181.72,1580.12 1183.51,1580.2 1185.99,1580.33 1189.11,1580.52 1192.81,1580.75 1197.05,1581.02 1201.77,1581.32 1206.92,1581.63 1212.45,1581.95 1218.32,1582.28 1224.46,1582.6 1230.84,1582.91 1237.39,1583.19 1244.07,1583.45 1250.83,1583.66 1257.61,1583.83 1264.37,1583.95 1271.04,1584 1277.6,1583.98 1283.97,1583.88 1290.12,1583.69 1295.98,1583.41 1301.51,1583.02 1306.67,1582.52 1311.38,1581.9 1315.62,1581.15 1319.32,1580.26 1322.44,1579.23 1324.91,1578.05 1326.7,1576.7 1327.75,1575.18 1328.02,1573.49 "/>
     <polygon id="_387207712" class="fil1" points="956.998,1370.15 2092.88,2506.03 2093.18,2507.01 2093.46,2508.01 2093.73,2509.04 2093.96,2510.09 2094.18,2511.16 2094.36,2512.24 2094.52,2513.32 2094.66,2514.42 2094.76,2515.52 2094.83,2516.62 2094.87,2517.71 2094.87,2518.8 2094.84,2519.88 2094.78,2520.95 2094.67,2521.99 2094.52,2523.02 958.644,1387.14 958.788,1386.11 958.894,1385.06 958.961,1384 958.992,1382.92 958.987,1381.83 958.948,1380.74 958.878,1379.64 958.776,1378.54 958.644,1377.44 958.483,1376.35 958.295,1375.27 958.083,1374.21 957.844,1373.16 957.583,1372.13 957.301,1371.13 "/>
     <polygon id="_387203776" class="fil1" points="958.644,1387.14 2094.52,2523.02 2094.34,2524.11 2094.09,2525.49 2093.78,2527.14 2093.42,2529.04 2093,2531.17 2092.54,2533.51 2092.02,2536.05 2091.47,2538.76 2090.87,2541.64 2090.24,2544.65 2089.57,2547.79 2088.88,2551.03 2088.16,2554.35 2087.41,2557.75 2086.65,2561.19 2085.86,2564.66 2085.07,2568.14 2084.26,2571.62 2083.45,2575.08 2082.63,2578.49 2081.81,2581.85 2081,2585.12 2080.19,2588.3 2079.39,2591.37 2078.6,2594.29 2077.83,2597.07 2077.08,2599.68 2076.35,2602.1 2075.64,2604.32 2074.97,2606.31 2074.32,2608.05 2073.71,2609.54 937.833,1473.66 938.441,1472.17 939.085,1470.42 939.76,1468.43 940.465,1466.22 941.195,1463.8 941.948,1461.19 942.72,1458.41 943.508,1455.48 944.307,1452.42 945.116,1449.24 945.931,1445.97 946.75,1442.61 947.567,1439.2 948.381,1435.74 949.187,1432.26 949.983,1428.78 950.766,1425.3 951.531,1421.86 952.276,1418.47 952.999,1415.14 953.694,1411.9 954.359,1408.77 954.992,1405.76 955.587,1402.88 956.142,1400.17 956.655,1397.63 957.121,1395.29 957.538,1393.16 957.902,1391.26 958.21,1389.61 958.458,1388.23 "/>
     <polygon id="_387199552" class="fil1" points="937.833,1473.66 2073.71,2609.54 2073.31,2610.48 2072.88,2611.52 2072.42,2612.68 2071.93,2613.93 2071.41,2615.27 2070.87,2616.7 2070.31,2618.2 2069.73,2619.77 2069.13,2621.41 2068.51,2623.11 2067.88,2624.85 2067.23,2626.64 2066.58,2628.47 2065.91,2630.32 2065.24,2632.2 2064.56,2634.1 2063.88,2636.01 2063.2,2637.92 2062.52,2639.83 2061.84,2641.72 2061.17,2643.6 2060.5,2645.46 2059.84,2647.29 2059.19,2649.08 2058.55,2650.82 2057.93,2652.52 2057.32,2654.15 2056.73,2655.73 2056.16,2657.23 2055.61,2658.66 2055.08,2660 2054.58,2661.25 918.701,1525.36 919.202,1524.11 919.729,1522.77 920.279,1521.35 920.85,1519.84 921.44,1518.27 922.048,1516.63 922.672,1514.94 923.31,1513.19 923.959,1511.4 924.62,1509.58 925.287,1507.72 925.961,1505.84 926.639,1503.94 927.32,1502.04 928.001,1500.13 928.681,1498.22 929.358,1496.32 930.03,1494.44 930.694,1492.59 931.35,1490.76 931.994,1488.97 932.626,1487.22 933.244,1485.53 933.845,1483.89 934.427,1482.32 934.991,1480.81 935.531,1479.39 936.047,1478.05 936.537,1476.79 936.999,1475.64 937.432,1474.59 "/>
     <polygon id="_387190600" class="fil1" points="918.701,1525.36 2054.58,2661.25 2054.57,2661.28 2054.55,2661.32 2054.54,2661.36 2054.52,2661.4 2054.5,2661.44 2054.49,2661.48 2054.47,2661.52 2054.46,2661.56 918.576,1525.67 918.591,1525.63 918.607,1525.6 918.622,1525.56 918.639,1525.52 918.654,1525.48 918.669,1525.44 918.686,1525.4 "/>
     <polygon id="_387186808" class="fil1" points="921.32,1527.59 2057.2,2663.47 2057.8,2664.06 2058.41,2664.72 2059.01,2665.47 2059.61,2666.31 2060.2,2667.24 2060.78,2668.28 2061.33,2669.41 2061.87,2670.66 2062.37,2672.02 2062.84,2673.5 2063.26,2675.1 927.382,1539.22 926.955,1537.62 926.487,1536.14 925.985,1534.78 925.452,1533.53 924.896,1532.39 924.321,1531.36 923.729,1530.43 923.129,1529.59 922.524,1528.84 921.92,1528.18 "/>
     <polygon id="_387193408" class="fil1" points="927.382,1539.22 2063.26,2675.1 2063.56,2676.42 2063.82,2677.81 2064.04,2679.26 2064.24,2680.78 2064.4,2682.34 2064.54,2683.94 2064.65,2685.58 2064.74,2687.25 2064.8,2688.93 2064.85,2690.63 2064.87,2692.34 2064.88,2694.04 2064.86,2695.73 2064.84,2697.4 2064.8,2699.05 2064.75,2700.67 2064.69,2702.24 2064.62,2703.77 2064.55,2705.25 2064.47,2706.66 2064.38,2708 2064.3,2709.26 2064.22,2710.44 2064.14,2711.53 2064.06,2712.52 2063.98,2713.4 2063.92,2714.16 2063.86,2714.8 2063.81,2715.32 2063.77,2715.69 2063.75,2715.92 2063.74,2716 927.861,1580.12 927.869,1580.04 927.891,1579.81 927.928,1579.44 927.976,1578.92 928.034,1578.28 928.102,1577.51 928.175,1576.63 928.254,1575.65 928.335,1574.56 928.419,1573.38 928.503,1572.12 928.586,1570.78 928.665,1569.36 928.74,1567.89 928.808,1566.36 928.868,1564.78 928.919,1563.17 928.958,1561.52 928.984,1559.85 928.994,1558.16 928.99,1556.45 928.966,1554.75 928.924,1553.05 928.86,1551.36 928.772,1549.7 928.661,1548.06 928.523,1546.46 928.358,1544.89 928.162,1543.38 927.935,1541.93 927.676,1540.54 "/>
     <polygon id="_387187600" class="fil1" points="927.861,1580.12 2063.74,2716 2061.95,2716.08 2059.47,2716.22 2056.35,2716.41 2052.65,2716.64 2048.42,2716.9 2043.7,2717.2 2038.54,2717.51 2033.01,2717.84 2027.14,2718.16 2021,2718.48 2014.62,2718.79 2008.07,2719.08 2001.39,2719.33 1994.64,2719.55 1987.85,2719.71 1981.1,2719.83 1974.42,2719.88 1967.87,2719.86 1961.49,2719.76 1955.35,2719.57 1949.48,2719.29 1943.95,2718.9 1938.8,2718.4 1934.08,2717.78 1929.84,2717.03 1926.14,2716.15 1923.03,2715.11 1920.55,2713.93 1918.76,2712.58 782.878,1576.7 784.668,1578.05 787.146,1579.23 790.261,1580.26 793.961,1581.15 798.197,1581.9 802.915,1582.52 808.067,1583.02 813.601,1583.41 819.465,1583.69 825.61,1583.88 831.984,1583.98 838.536,1584 845.216,1583.95 851.972,1583.83 858.754,1583.66 865.51,1583.45 872.19,1583.19 878.743,1582.91 885.118,1582.6 891.263,1582.28 897.128,1581.95 902.663,1581.63 907.816,1581.32 912.536,1581.02 916.771,1580.75 920.473,1580.52 923.589,1580.33 926.069,1580.2 "/>
     <polygon id="_387213520" class="fil1" points="1212.2,1368.86 2348.08,2504.74 2348.51,2505.93 2348.93,2507.32 2349.35,2508.9 2349.77,2510.67 2350.18,2512.6 2350.58,2514.68 2350.98,2516.92 2351.37,2519.3 2351.76,2521.8 2352.14,2524.41 2352.51,2527.14 2352.87,2529.95 2353.23,2532.85 2353.58,2535.83 2353.93,2538.86 2354.26,2541.95 2354.59,2545.08 2354.91,2548.24 2355.23,2551.41 2355.53,2554.6 2355.83,2557.78 2356.11,2560.96 2356.39,2564.11 2356.66,2567.22 2356.92,2570.29 2357.17,2573.31 2357.41,2576.25 2357.63,2579.13 2357.85,2581.91 2358.06,2584.6 2358.26,2587.17 2358.44,2589.63 1222.56,1453.75 1222.38,1451.29 1222.18,1448.71 1221.97,1446.03 1221.75,1443.24 1221.52,1440.37 1221.28,1437.42 1221.04,1434.41 1220.78,1431.34 1220.51,1428.22 1220.23,1425.07 1219.95,1421.9 1219.65,1418.72 1219.35,1415.53 1219.03,1412.35 1218.71,1409.19 1218.38,1406.07 1218.05,1402.98 1217.7,1399.94 1217.35,1396.97 1216.99,1394.07 1216.63,1391.25 1216.25,1388.53 1215.87,1385.92 1215.49,1383.41 1215.1,1381.04 1214.7,1378.8 1214.3,1376.71 1213.89,1374.78 1213.47,1373.02 1213.05,1371.44 1212.63,1370.05 "/>
     <polygon id="_387187936" class="fil1" points="679.214,716.821 1815.09,1852.7 1813.95,1851.8 678.068,715.917 "/>
     <polygon id="_387209944" class="fil1" points="695.93,704.145 1831.81,1840.03 1830.96,1841.32 1830.12,1842.62 1829.27,1843.92 1828.42,1845.23 1827.58,1846.54 1826.73,1847.86 1825.89,1849.18 1825.04,1850.5 689.163,714.616 690.006,713.293 690.851,711.974 691.695,710.659 692.541,709.348 693.388,708.042 694.235,706.739 695.082,705.44 "/>
     <polygon id="_387192592" class="fil1" points="707.373,725.526 1843.25,1861.41 1843.06,1861.21 707.175,725.332 "/>
     <polygon id="_387186616" class="fil1" points="887.949,916.997 2023.83,2052.88 2017.88,2050.63 2011.69,2047.84 2005.29,2044.53 1998.71,2040.72 1991.96,2036.46 1985.08,2031.78 1978.1,2026.7 1971.03,2021.25 1963.9,2015.47 1956.75,2009.39 1949.59,2003.03 1942.44,1996.43 1935.35,1989.63 799.465,853.744 806.562,860.551 813.705,867.147 820.867,873.503 828.023,879.587 835.149,885.367 842.218,890.813 849.204,895.894 856.081,900.581 862.824,904.841 869.409,908.643 875.808,911.957 881.997,914.751 "/>
     <polygon id="_387204088" class="fil1" points="904.825,940.367 2040.71,2076.25 2038.12,2075.43 2035.68,2074.67 2033.4,2073.95 2031.27,2073.29 2029.31,2072.68 2027.51,2072.12 2025.87,2071.61 2024.4,2071.15 2023.09,2070.74 2021.95,2070.39 2020.98,2070.09 2020.19,2069.85 2019.56,2069.66 2019.12,2069.52 2018.85,2069.44 2018.76,2069.41 882.878,933.529 882.968,933.556 883.237,933.639 883.684,933.776 884.306,933.967 885.102,934.213 886.07,934.51 887.208,934.862 888.514,935.267 889.988,935.724 891.627,936.233 893.429,936.794 895.392,937.407 897.516,938.071 899.796,938.787 902.234,939.552 "/>
     <polygon id="_387186952" class="fil1" points="959.911,956.753 2095.79,2092.64 2094.06,2092.29 2092.33,2091.93 2090.6,2091.55 2088.87,2091.15 2087.15,2090.74 2085.43,2090.31 2083.71,2089.86 2082,2089.4 2080.28,2088.93 2078.57,2088.44 2076.85,2087.95 2075.14,2087.44 2073.43,2086.92 2071.72,2086.39 2070.01,2085.86 2068.3,2085.31 2066.59,2084.76 2064.88,2084.21 2063.17,2083.65 2061.45,2083.08 2059.74,2082.51 2058.02,2081.94 2056.3,2081.36 2054.58,2080.79 2052.86,2080.21 2051.13,2079.64 2049.4,2079.07 2047.67,2078.49 2045.94,2077.93 2044.2,2077.36 2042.45,2076.8 2040.71,2076.25 904.825,940.367 906.572,940.921 908.316,941.48 910.055,942.044 911.79,942.613 913.522,943.183 915.251,943.757 916.977,944.331 918.7,944.906 920.421,945.481 922.139,946.055 923.857,946.627 925.572,947.196 927.285,947.763 928.998,948.324 930.709,948.881 932.42,949.431 934.131,949.974 935.841,950.511 937.552,951.039 939.262,951.557 940.973,952.065 942.686,952.562 944.4,953.048 946.115,953.52 947.831,953.979 949.548,954.425 951.269,954.856 952.992,955.27 954.716,955.667 956.444,956.048 958.176,956.41 "/>
     <polygon id="_387208672" class="fil1" points="1142.55,1128.85 2278.43,2264.73 2279.23,2266.63 2280.11,2268.94 2281.07,2271.65 2282.1,2274.71 2283.19,2278.1 2284.34,2281.78 2285.53,2285.73 2286.77,2289.9 2288.04,2294.28 2289.34,2298.82 2290.66,2303.51 2291.99,2308.3 2293.33,2313.16 2294.66,2318.06 2295.99,2322.97 2297.29,2327.87 2298.58,2332.71 2299.83,2337.47 2301.05,2342.11 2302.22,2346.6 2303.34,2350.92 2304.4,2355.03 2305.4,2358.89 2306.31,2362.49 2307.15,2365.77 2307.9,2368.73 2308.56,2371.31 2309.11,2373.49 2309.55,2375.25 2309.87,2376.54 2310.07,2377.34 2310.14,2377.61 1174.26,1241.73 1174.19,1241.46 1173.99,1240.66 1173.67,1239.37 1173.23,1237.61 1172.67,1235.43 1172.02,1232.84 1171.27,1229.89 1170.43,1226.6 1169.51,1223.01 1168.52,1219.15 1167.46,1215.04 1166.34,1210.72 1165.17,1206.23 1163.95,1201.58 1162.7,1196.83 1161.41,1191.98 1160.1,1187.09 1158.78,1182.18 1157.44,1177.27 1156.11,1172.41 1154.78,1167.62 1153.46,1162.94 1152.16,1158.4 1150.89,1154.02 1149.65,1149.84 1148.46,1145.9 1147.31,1142.22 1146.22,1138.83 1145.19,1135.77 1144.23,1133.06 1143.35,1130.75 "/>
     <polygon id="_387193624" class="fil1" points="1132.76,960.76 2268.64,2096.64 2269.32,2102.68 2270.02,2108.95 2270.74,2115.42 2271.47,2122.08 2272.2,2128.89 2272.94,2135.82 2273.67,2142.84 2274.39,2149.93 2275.1,2157.05 2275.79,2164.18 2276.47,2171.29 2277.12,2178.34 2277.74,2185.32 2278.33,2192.19 2278.88,2198.93 2279.39,2205.5 2279.86,2211.87 2280.27,2218.02 2280.63,2223.93 2280.93,2229.55 2281.17,2234.86 2281.34,2239.84 2281.44,2244.45 2281.47,2248.66 2281.41,2252.45 2281.27,2255.79 2281.04,2258.65 2280.72,2261 2280.31,2262.81 2279.79,2264.06 2279.17,2264.71 2278.43,2264.73 1142.55,1128.85 1143.29,1128.83 1143.91,1128.18 1144.43,1126.93 1144.84,1125.12 1145.16,1122.77 1145.39,1119.91 1145.53,1116.57 1145.59,1112.78 1145.56,1108.56 1145.46,1103.95 1145.29,1098.98 1145.05,1093.66 1144.75,1088.04 1144.39,1082.14 1143.97,1075.99 1143.51,1069.61 1143,1063.04 1142.45,1056.31 1141.86,1049.44 1141.24,1042.46 1140.59,1035.4 1139.91,1028.3 1139.22,1021.17 1138.51,1014.04 1137.78,1006.96 1137.05,999.935 1136.32,993.005 1135.59,986.199 1134.86,979.541 1134.14,973.064 1133.44,966.793 "/>
    </g>
    <path id="_478214512" class="fil1" d="M1215.4 527.58c42.0461,29.6103 81.2977,68.9256 116.394,116.508 4.20591,-5.04331 9.77835,-8.42481 15.0732,-1.9441 4.60158,5.63504 4.39489,7.28977 2.59606,14.4957 2.18858,0.722835 8.3256,-14.3421 17.9008,-8.64213 9.36142,5.57363 2.7437,22.5319 -1.49764,34.5118 -0.917717,2.5937 -1.89921,5.18859 -2.91733,7.7693 0.928347,1.50473 1.85433,3.01654 2.77559,4.53544 2.05984,3.40276 0.972048,7.83308 -2.43071,9.89292 -2.05984,1.24843 -4.49764,1.34055 -6.55749,0.464174 -1.35709,3.15945 -2.68701,6.24686 -3.93189,9.22678 -0.307087,0.735827 -0.71693,1.3689 -1.21654,1.90984 -7.76812,51.2528 -105.334,178.958 -165.731,204.456 2.73662,7.64174 5.06457,13.8543 6.2941,16.1055 0,0 -7.51654,2.92677 -21.3732,8.4626 -12.8906,5.14725 -25.3595,10.8118 -38.0185,15.4288 7.19528,62.993 18.2162,171.251 9.79607,168.092 8.01851,17.8512 31.7079,112.877 31.7079,112.877 0,0 -1.19646,2.30197 -3.5752,5.68229 13.8272,30.0709 29.3268,67.6288 38.1012,99.7028 2.10591,7.69843 3.1063,14.9894 3.41339,21.7453 4.60276,11.5724 8.43426,59.3504 10.3642,84.8883 1.60866,21.2917 5.73544,43.6949 8.0752,57.7973 2.64803,-0.159449 5.62205,0.244488 6.79607,2.53229 2.31142,4.51772 12.7571,20.1236 22.1894,29.5335 9.43583,9.40749 28.513,14.8559 48.8941,18.6142 20.3811,3.76063 17.7638,7.1256 18.9225,9.38387 10.8224,21.0815 -130.452,8.98229 -145.72,8.51103 0,0 -2.84764,-27.261 0.478347,-40.8992 2.16732,-8.89371 6.23623,-12.2728 8.80512,-13.5473 -0.0413386,-0.102756 -0.0826772,-0.205512 -0.125197,-0.31063 -5.20512,-12.8221 -15.0295,-42.326 -19.1303,-51.7063 -6.28819,-14.3929 -19.1764,-76.4457 -20.8122,-86.5205 -0.878741,-5.41182 -0.0212599,-11.8547 1.64646,-16.9878 -0.618898,-1.15866 -1.22126,-2.19803 -1.80236,-3.10866 -10.0961,-15.8232 -22.4386,-30.7453 -32.8536,-50.1567 -4.71733,-8.78977 -20.7673,-30.0307 -29.1744,-48.1973 -2.19567,-0.413386 -3.46536,-0.689764 -3.46536,-0.689764l-28.3299 -69.215 -1.30866 -15.1335 -0.285827 13.1162 -23.8122 70.8969c0,0 -4.66536,1.33347 -11.5854,2.84882 -8.59961,17.7437 -23.752,37.8756 -28.3122,46.3737 -10.415,19.4114 -22.7575,34.3335 -32.8536,50.1567 -0.581103,0.910631 -1.18347,1.94882 -1.80118,3.10866 1.66654,5.13307 2.52402,11.576 1.64528,16.9878 -1.63465,10.0748 -14.5228,72.1276 -20.811,86.5205 -4.10079,9.38032 -13.9252,38.8843 -19.1315,51.7063 -0.0425197,0.105118 -0.0838583,0.207874 -0.125197,0.31063 2.5689,1.27441 6.6378,4.65237 8.80631,13.5473 3.32481,13.6382 0.478347,40.8992 0.478347,40.8992 -15.2681,0.47126 -156.543,12.5705 -145.72,-8.51103 1.15866,-2.25827 -1.45866,-5.62323 18.9225,-9.38387 20.3811,-3.75827 39.4571,-9.2067 48.8941,-18.6142 9.43229,-9.40985 19.878,-25.0158 22.1882,-29.5335 1.1752,-2.2878 4.14803,-2.69173 6.79607,-2.53347 2.34095,-14.1012 6.46654,-36.5044 8.0752,-57.7961 1.92992,-25.5378 5.7626,-73.3193 10.3654,-84.8894 0.305906,-6.75591 1.30748,-14.0469 3.41339,-21.7441 9.53032,-34.8355 26.9929,-76.1398 41.6315,-107.296 3.92835,-21.1878 15.4347,-82.1268 21.639,-103.113 -1.32756,-0.752363 -2.6315,-1.54252 -3.90945,-2.37402 -0.797245,-0.478347 -3.97323,-102.937 -0.245669,-177.579 -18.5221,-3.55158 -36.4252,-10.5106 -55.0855,-16.3854 -14.2323,-4.48229 -21.9473,-6.83859 -21.9473,-6.83859 1.05709,-2.3374 2.91378,-8.70709 5.07048,-16.5319 -62.1367,-20.9032 -168.991,-140.943 -180.575,-191.471 -0.538583,-0.50315 -0.994489,-1.10315 -1.35591,-1.81417 -3.13347,-6.15945 -6.69213,-12.7736 -10.0878,-19.5662 -2.26181,3.44764 -4.51772,6.9378 -6.76654,10.4705 -2.1378,3.3567 -6.59292,4.34292 -9.94961,2.20512 -3.35551,-2.1378 -4.34292,-6.59292 -2.20394,-9.94843 3.91063,-6.1441 7.84253,-12.1606 11.7933,-18.0532 -4.87914,-11.1106 -10.1941,-24.6732 -2.27717,-30.2315 8.73898,-6.13111 15.7571,6.97441 18.202,7.30985 0.0696851,-0.0968505 0.13937,-0.193701 0.210236,-0.290551 -2.25473,-6.83386 -2.5252,-8.5004 1.58858,-14.3917 3.42756,-4.90158 7.37245,-4.79055 11.0138,-2.60788 41.2878,-54.1182 84.4158,-95.4414 128.284,-125.115 63.2965,-42.815 128.173,-61.4516 191.368,-59.3304 62.2524,2.08937 122.685,24.3201 178.204,63.4182z"/>
   </g>
  </g>
  <path class="fil2" d="M1024 0c565.539,0 1024,458.461 1024,1024 0,565.539 -458.461,1024 -1024,1024 -565.539,0 -1024,-458.461 -1024,-1024 0,-565.539 458.461,-1024 1024,-1024z"/>
  <path class="fil3" d="M1025.57 1246.42c4.80945,17.2559 -26.941,57.4701 -33.9166,70.467 -10.415,19.4114 -22.7575,34.3335 -32.8536,50.1567 -5.45079,8.5441 -12.8008,28.4445 -17.7768,52.5426 -2.40473,3.37559 -28.1764,-2.60197 -38.726,-6.45945 0.370866,-8.35985 -10.3748,-33.5764 -1.50118,-66.0083 18.0638,-66.026 64.6217,-155.291 66.4371,-154.647l1.10906 0.393307c22.4575,7.97127 56.2796,50.1662 57.228,53.5548z"/>
  <path class="fil4" d="M782.141 1571.61c1.15866,-2.25827 -1.45866,-5.62323 18.9225,-9.38387 20.3811,-3.75827 39.4571,-9.2067 48.8941,-18.6142 9.43229,-9.40985 19.878,-25.0158 22.1882,-29.5335 2.31969,-4.51654 11.6469,-1.69016 11.6469,-1.69016 0,0 2.80158,5.27717 4.5378,14.0681 1.73268,8.79449 6.56693,13.1339 15.6484,10.7681 9.08741,-2.36929 12.2823,-12.3106 12.2823,-12.3106 0,0 7.79646,0.666142 11.1213,14.3079 3.32481,13.6382 0.478347,40.8992 0.478347,40.8992 -15.2681,0.47126 -156.543,12.5705 -145.72,-8.51103z"/>
  <path class="fil3" d="M951.479 1361.3c4.42205,2.1189 8.8004,15.763 7.16457,25.8366 -1.63465,10.0748 -14.5228,72.1276 -20.811,86.5205 -4.10079,9.38032 -13.9252,38.8843 -19.1315,51.7063 -2.77559,6.8504 -2.42126,8.32678 -8.40473,12.085 -5.9752,3.75709 -15.0591,2.42008 -24.1689,0.0708662 -9.10985,-2.34685 -9.76536,-6.37323 -8.64686,-16.2059 1.26378,-11.0941 7.47166,-40.2437 9.53623,-67.565 2.06457,-27.3272 6.30827,-80.1225 11.3433,-86.7674 5.0315,-6.64252 9.05079,-7.08308 13.0795,-7.52717 4.03229,-0.43937 35.615,-0.271654 40.0394,1.84606z"/>
  <path class="fil3" d="M1084.01 1246.42c-4.80945,17.2559 26.941,57.4701 33.9154,70.467 10.415,19.4114 22.7575,34.3335 32.8536,50.1567 5.45197,8.5441 12.8008,28.4445 17.778,52.5426 2.40355,3.37559 28.1764,-2.60197 38.726,-6.45945 -0.372048,-8.35985 10.3736,-33.5764 1.50118,-66.0083 -18.0638,-66.026 -64.6217,-155.291 -66.4382,-154.647l-1.10787 0.393307c-22.4575,7.97127 -56.2796,50.1662 -57.228,53.5548z"/>
  <path class="fil4" d="M1327.44 1571.61c-1.15866,-2.25827 1.45866,-5.62323 -18.9225,-9.38387 -20.3811,-3.75827 -39.4583,-9.2067 -48.8941,-18.6142 -9.43229,-9.40985 -19.878,-25.0158 -22.1894,-29.5335 -2.31851,-4.51654 -11.6457,-1.69016 -11.6457,-1.69016 0,0 -2.80158,5.27717 -4.5378,14.0681 -1.73268,8.79449 -6.56693,13.1339 -15.6496,10.7681 -9.08623,-2.36929 -12.2811,-12.3106 -12.2811,-12.3106 0,0 -7.79764,0.666142 -11.1213,14.3079 -3.32599,13.6382 -0.478347,40.8992 -0.478347,40.8992 15.2681,0.47126 156.542,12.5705 145.72,-8.51103z"/>
  <path class="fil3" d="M1158.1 1361.3c-4.42323,2.1189 -8.8004,15.763 -7.16575,25.8366 1.63583,10.0748 14.524,72.1276 20.8122,86.5205 4.10079,9.38032 13.9252,38.8843 19.1303,51.7063 2.77559,6.8504 2.42244,8.32678 8.40591,12.085 5.9752,3.75709 15.0591,2.42008 24.1677,0.0708662 9.11103,-2.34685 9.76536,-6.37323 8.64686,-16.2059 -1.2626,-11.0941 -7.47166,-40.2437 -9.53623,-67.565 -2.06457,-27.3272 -6.30827,-80.1225 -11.3433,-86.7674 -5.03032,-6.64252 -9.04961,-7.08308 -13.0784,-7.52717 -4.03229,-0.43937 -35.6162,-0.271654 -40.0394,1.84606z"/>
  <path class="fil3" d="M914.18 875.449c-56.1414,2.31851 -163.055,-166.245 -165.018,-166.01 -6.79252,0.819686 -35.7366,7.40434 -42.8103,8.50276 0.99567,50.726 148.609,213.571 204.626,201.554 2.51929,0.0862205 4.96418,-34.6288 3.20197,-44.0469z"/>
  <path class="fil3" d="M1156.59 881.296c56.1567,-1.89095 150.148,-177.989 152.123,-177.9 6.83504,0.309449 36.1914,4.7067 43.3276,5.27363 2.80512,50.6575 -132.199,224.099 -188.96,216.311 -2.50512,0.274016 -7.54253,-34.1599 -6.49016,-43.6843z"/>
  <path class="fil3" d="M745.862 654.961c-0.49252,-3.28701 -8.00434,-8.51812 -15.1217,-2.99055 -5.48386,4.25552 -1.43386,3.6626 -1.4126,11.0138 -1.41614,-3.26339 -13.8673,-24.5457 -22.8012,-11.7685 -4.16575,5.96457 -3.83622,7.59922 -1.50354,14.6504 -2.12717,0.884646 -9.37442,-13.6784 -18.4973,-7.27796 -8.91733,6.25985 -1.04882,22.6748 4.07835,34.3028 4.70552,10.6831 10.5673,21.2953 15.4134,30.8209 5.3504,10.5059 31.2189,-3.00473 41.7496,-2.68701 2.54173,-19.0571 5.33859,-46.7859 -1.90512,-66.0638z"/>
  <path class="fil3" d="M1307.92 648.823c0.244488,-3.31418 7.34292,-9.09331 14.8547,-4.11496 5.78622,3.83386 1.70315,3.54567 2.23347,10.878 1.16693,-3.36142 11.9906,-25.5154 21.8551,-13.4421 4.60158,5.63504 4.39489,7.28977 2.59606,14.4957 2.18858,0.722835 8.3256,-14.3421 17.9008,-8.64213 9.36142,5.57363 2.7437,22.5319 -1.49764,34.5118 -3.89174,11.0055 -8.94331,22.0276 -13.0618,31.8886 -4.54961,10.8768 -31.3559,-0.657875 -41.8335,0.446457 -3.9626,-18.8138 -8.82757,-46.2544 -3.04725,-66.0213z"/>
  <path class="fil5" d="M1055.36 1196.76l-23.8122 70.8969c0,0 -44.0847,12.6024 -62.2678,4.35945 -18.1819,-8.24528 -28.2118,-24.8386 -28.2118,-24.8386 0,0 17.5169,-96.3544 24.3685,-114.686 6.84804,-18.3295 30.5587,-67.2178 30.5587,-67.2178 0,0 9.99568,18.554 37.1622,15.0378 8.70709,-1.12559 17.1602,-1.91457 24.7925,-2.47559l-2.59016 118.924z"/>
  <path class="fil5" d="M1056.96 1198.78l28.3299 69.215c0,0 44.8063,9.73583 62.4201,0.337796 17.6126,-9.39922 26.5524,-26.6044 26.5524,-26.6044 0,0 -23.6894,-95.0257 -31.7079,-112.877 -8.01497,-17.8512 -34.8272,-65.1095 -34.8272,-65.1095 0,0 -8.77914,19.1587 -36.1158,17.4012 -8.76142,-0.562205 -17.2477,-0.805512 -24.9012,-0.872835l10.2496 118.51z"/>
  <path class="fil6" d="M980.39 909.947c-3.5374,-9.44528 7.28268,-2.50866 -7.33938,-15.0591 -14.6244,-12.5469 -71.315,-23.7118 -71.315,-23.7118 -2.55945,0.396851 -15.2811,54.4477 -18.8575,62.3528 0,0 7.71497,2.3563 21.9473,6.83859 31.6819,9.97324 61.1776,23.0752 95.2347,17.3162 1.53425,4.3004 -9.04607,-2.59134 -11.2146,-12.8291 -2.80512,-13.2413 -6.45473,-29.5843 -8.45552,-34.9075z"/>
  <path class="fil6" d="M1093.14 920.656c2.82047,-9.68505 -7.4504,-1.95709 6.19134,-15.5669 13.6441,-13.6075 69.339,-28.9855 69.339,-28.9855 2.58307,0.20315 19.3146,53.1508 23.4732,60.7654 0,0 -7.51654,2.92677 -21.3732,8.4626 -30.8457,12.3177 -59.2772,27.5918 -93.6709,24.3992 -1.20827,4.40315 8.82638,-3.26221 10.2236,-13.6335 1.80591,-13.4138 4.22126,-29.9835 5.81693,-35.4414z"/>
  <path class="fil7" d="M1064.57 867.543l0.00354331 0 0.011811 0 0.0177165 0.0011811 0.0011811 0 0.0236221 0 0.034252 0.00236221 0.0401575 0 0.00590552 0 0.0413386 0.0011811 0.0531496 0.0011811 0.0614174 0.0011811 0.0141732 0.0011811 0.0543308 0.0011811 0.0732284 0.00236221 0.0826772 0.00236221 0.022441 0 0.0661418 0.00236221 0.0944883 0.00354331 0.101575 0.00236221 0.0354331 0.0011811 0.0720473 0.0011811 0.114567 0.00354331 0.120473 0.00354331 0.0496063 0.00236221 0.0767717 0.00236221 0.133465 0.00354331 0.138189 0.00472441 0.0673229 0.00236221 0.0767717 0.00236221 0.152362 0.00472441 0.157087 0.00590552 0.0874016 0.00236221 0.0755906 0.00236221 0.167717 0.00590552 0.173622 0.00590552 0.109843 0.00472441 0.0708662 0.0011811 0.185433 0.00708662 0.191339 0.00708662 0.131102 0.00472441 0.0637796 0.00236221 0.20315 0.00708662 0.206693 0.00826772 0.157087 0.00472441 0.0543308 0.00354331 0.218504 0.00826772 0.223229 0.00826772 0.184252 0.00708662 0.0425197 0.0011811 0.231496 0.00944883 0.237402 0.0106299 0.21378 0.00826772 0.0295276 0.0011811 0.246851 0.00944883 0.251575 0.011811 0.242126 0.00944883 0.0129921 0.0011811 0.261024 0.0106299 0.265748 0.011811 0.269292 0.0106299 0.00354331 0.00236221 0.269292 0.0106299 0.279921 0.0129921 0.281103 0.0129921 0.0236221 0.00236221 0.263386 0.0106299 0.28937 0.0141732 0.296457 0.0141732 0.0448819 0.00236221 0.252756 0.0129921 0.302362 0.0141732 0.305906 0.0153543 0.068504 0.00354331 0.240945 0.011811 0.314173 0.0165354 0.316536 0.0153543 0.0921261 0.00472441 0.229134 0.011811 0.323622 0.0177165 0.327166 0.0165354 0.116929 0.00708662 0.21378 0.011811 0.333071 0.0188977 0.337796 0.0188977c14.9445,0.838583 38.9351,2.89607 45.5552,7.62402 9.82087,7.01339 2.44252,22.0158 5.25,43.0571 2.8004,21.0272 26.0516,214.306 14.8394,210.101 -36.1429,6.7689 -130.388,39.2988 -182.394,5.48032 -1.37717,-0.761812 -6.70512,-214.554 9.00946,-247.94l0.122835 -0.261024 0.122835 -0.256299 0.0165354 -0.0354331 0.106299 -0.219685 0.122835 -0.251575 0.0318898 -0.0661418 0.212599 -0.426378 0.0484252 -0.0980316 0.0744095 -0.145276 0.122835 -0.239764 0.0637796 -0.126378 0.0578741 -0.109843 0.124016 -0.232677 0.0814961 -0.154725 0.0413386 -0.0767717 0.223229 -0.407481 0.0236221 -0.0448819 0.126378 -0.222047 0.0259843 -0.046063 0.159449 -0.277559 0.19252 -0.327166 0.00826772 -0.011811c0.167717,-0.279921 0.336614,-0.550394 0.507874,-0.816142l0.0437008 -0.0649607c0.271654,-0.415748 0.552756,-0.816142 0.840946,-1.19882l0.0248032 -0.034252 0.0377953 -0.0484252 0.142913 -0.183071 0.122835 -0.154725 0.0188977 -0.0248032 0.291733 -0.351969 0.3 -0.343701 0.0200788 -0.0200788 0.287008 -0.311811 0.0413386 -0.0437008 0.116929 -0.119291c0.158268,-0.161811 0.320079,-0.32126 0.484252,-0.475985l0.0862205 -0.0814961 0.080315 -0.0720473 0.252756 -0.22441 0.0283465 -0.0271654 0.0590552 -0.0496063 0.174803 -0.148819 0.13937 -0.115748 0.0377953 -0.0295276 0.00944883 -0.00826772c0.231496,-0.186614 0.47126,-0.368504 0.719292,-0.54567l0.00826772 -0.00472441 0.0106299 -0.00944883 0.0248032 -0.0165354 0.350788 -0.242126 0.0377953 -0.0259843 0.00944883 -0.00590552 0.351969 -0.227953 0.0673229 -0.0425197 0.022441 -0.011811 0.324803 -0.197244 0.0968505 -0.056693 0.113386 -0.0661418 0.217323 -0.121654 0.127559 -0.0708662 0.090945 -0.0484252 0.380315 -0.197244 0.00590552 -0.00354331 0.0637796 -0.0330709 0.379134 -0.18189 0.0531496 -0.0271654 0.0330709 -0.0153543 0.238583 -0.109843 0.240945 -0.108662 0.00236221 0c5.92087,-2.60315 15.4996,-3.70512 33.267,-4.68544l2.14134 -0.11811 0.0153543 -0.0011811 0.431103 -0.022441 0.0933072 -0.00472441 0.516142 -0.0283465 0.0484252 -0.00236221 1.24134 -0.068504 0.0637796 -0.00354331 0.61063 -0.0330709 0.129921 -0.00590552 0.577559 -0.0318898 0.200788 -0.0106299 0.540945 -0.0295276 0.277559 -0.0141732 0.49252 -0.0283465 0.360236 -0.0188977 0.43937 -0.0236221 0.446457 -0.0236221 0.381496 -0.0212599 0.537402 -0.0295276 0.316536 -0.0165354 0.630709 -0.034252 0.246851 -0.0129921 0.728741 -0.0389764 0.172441 -0.0106299 0.830316 -0.0448819 0.0921261 -0.00472441 0.93189 -0.0507874 0.00944883 0 0.960237 -0.0531496 0.0767717 -0.00236221 0.901182 -0.0507874 0.165354 -0.00826772 0.826772 -0.0437008 0.257481 -0.0141732 0.748819 -0.0413386 0.351969 -0.0177165 0.667323 -0.0366142 0.446457 -0.0236221 0.581103 -0.0318898 0.544489 -0.0295276 0.494882 -0.0259843 0.640158 -0.0354331 0.405118 -0.022441 0.73819 -0.0389764 0.312992 -0.0177165 0.83504 -0.0448819 0.219685 -0.0106299 0.933072 -0.0507874 0.126378 -0.00708662 1.02874 -0.0555119 0.0318898 -0.0011811 1.05945 -0.0578741 0.0625985 -0.00354331 0.99567 -0.0531496 0.157087 -0.00826772 0.897638 -0.0496063 0.250394 -0.0129921 0.799607 -0.0437008 0.34252 -0.0177165 0.701575 -0.0377953 0.432284 -0.0236221 0.602363 -0.0330709 0.520867 -0.0271654 0.506693 -0.0283465 0.605906 -0.0318898 0.409843 -0.022441 0.687402 -0.0377953 0.315355 -0.0165354 0.766536 -0.0401575 0.223229 -0.0129921 0.839764 -0.046063 0.132284 -0.00708662 0.910631 -0.0484252 0.0472441 -0.00354331 0.937796 -0.0496063 0.0366142 -0.0011811 0.881103 -0.0496063 0.116929 -0.00472441 0.778347 -0.0425197 0.19252 -0.00944883 0.680315 -0.0377953 0.263386 -0.0141732 0.583465 -0.0318898 0.329528 -0.0165354 0.49252 -0.0271654 0.388583 -0.0200788 0.403937 -0.022441 0.444095 -0.0236221 0.32126 -0.0188977 0.490158 -0.0259843 0.242126 -0.0129921 0.530315 -0.0271654 0.170079 -0.0106299 0.564567 -0.0307087 0.102756 -0.00472441 0.588189 -0.0330709 0.0425197 -0.0011811 0.594095 -0.0318898 0.0106299 -0.0011811 0.544489 -0.0295276 0.0590552 -0.00236221 0.455906 -0.0259843 0.0980316 -0.00354331 0.375591 -0.0212599 0.127559 -0.00708662 0.302362 -0.0153543 0.15 -0.00826772 0.23504 -0.0129921 0.162992 -0.00944883 0.175984 -0.00826772 0.167717 -0.00944883 0.122835 -0.00708662 0.161811 -0.00826772 0.0791339 -0.00472441 0.145276 -0.00826772 0.046063 -0.0011811 0.116929 -0.00708662 0.0212599 -0.0011811 0.0779528 -0.00472441 0.00590552 0 0.0283465 -0.0011811z"/>
  <path class="fil8" d="M1109.3 785.562c2.00079,-5.35158 22.4563,-11.4118 16.0465,15.2717 -0.746457,3.1004 -6.45945,13.2791 -15.9,13.402 -9.79489,0.126378 -3.20906,-19.4303 -0.146457,-28.6736z"/>
  <path class="fil9" d="M1080.31 660.619c-55.7906,21.4051 -74.2005,14.3469 -86.2831,33.3201 -12.6071,19.7941 0.284646,66.9745 8.12953,104.146 4.47048,21.1831 -1.18228,35.941 7.17166,48.5008 2.42599,9.5315 50.2548,10.102 74.6457,-2.08583 16.4162,-8.20276 14.7874,-12.7973 23.4591,-31.8969 12.0284,-26.4921 23.8181,-38.6327 26.7662,-77.9386 0.764174,-10.1835 1.72559,-29.7343 -7.86024,-31.7799 7.26733,-36.0709 -33.5965,-51.8433 -46.0288,-42.2658z"/>
  <path class="fil3" d="M1010.69 716.665c-5.38583,14.4721 -4.34174,59.602 -0.0271654,96.3745 0.655512,5.58898 3.26693,13.4256 5.54764,20.7319 2.06339,6.61064 3.85748,12.7878 3.68859,16.4764 -0.537402,11.7662 -0.807875,15.1488 -9.44765,19.9394 -0.0578741,2.41181 8.52048,4.21654 11.935,6.44174 5.5689,3.62717 12.926,20.126 21.3579,21.378 6.75355,1.00276 8.31615,-13.6784 12.3555,-15.5445 23.2937,-10.7634 47.1874,-26.8075 55.5626,-52.6843 8.06339,-13.0063 10.3158,-110.563 0.601182,-121.963 -6.11811,-14.6339 -27.1276,5.69528 -43.9725,1.22008 -42.8055,-10.2673 -55.1823,0.137008 -57.6012,7.62993z"/>
  <path class="fil8" d="M1013.47 824.959l0.0401575 0.134646 0.011811 0.0377953 0.0295276 0.0980316 0.0413386 0.135827 0.0330709 0.108662 0.00826772 0.0295276 0.0413386 0.135827 0.0413386 0.137008 0.011811 0.0413386 0.0295276 0.0956694 0.0413386 0.137008 0.034252 0.111024 0.00826772 0.0259843 0.0413386 0.138189 0.0425197 0.137008 0.0129921 0.0425197 0.0283465 0.0944883 0.0425197 0.138189 0.0850394 0.274016 0.0425197 0.138189 0.0141732 0.046063 0.0271654 0.0921261 0.0437008 0.138189 0.0425197 0.138189 0.0425197 0.138189 0.0437008 0.137008 0.0141732 0.0484252 0.0283465 0.0897638 0.0425197 0.13937 0.0377953 0.11811 0.00590552 0.0188977 0.0425197 0.138189 0.0437008 0.13937 0.0153543 0.0507874 0.0271654 0.0874016 0.0437008 0.138189 0.0377953 0.121654 0.00590552 0.0165354 0.0425197 0.138189 0.0437008 0.138189 0.0165354 0.0531496 0.0271654 0.0862205 0.0425197 0.137008 0.0389764 0.124016 0.00472441 0.0153543 0.0437008 0.138189 0.0437008 0.138189 0.0177165 0.056693 0.0259843 0.0814961 0.0437008 0.13937 0.0389764 0.126378 0.00472441 0.0106299 0.0425197 0.13937 0.0437008 0.138189 0.0188977 0.0578741 0.0248032 0.080315 0.0437008 0.138189 0.0401575 0.12874 0.00354331 0.00944883 0.0437008 0.138189 0.0437008 0.138189 0.0188977 0.0614174 0.0236221 0.0767717 0.0437008 0.138189 0.0401575 0.129921 0.00236221 0.00826772 0.0437008 0.137008 0.0437008 0.138189 0.0200788 0.0625985 0.0236221 0.0744095 0.0425197 0.138189 0.0425197 0.133465 0.0011811 0.00472441 0.0437008 0.137008 0.0425197 0.138189 0.0200788 0.0649607 0.0236221 0.0720473 0.0425197 0.137008 0.0413386 0.134646 0.0011811 0.00236221 0.0437008 0.137008 0.0425197 0.137008 0.0200788 0.0673229 0.022441 0.0696851 0.0425197 0.137008 0.0437008 0.135827c2.06221,6.61064 3.8563,12.7878 3.6874,16.4764l-0.0011811 0.0330709 -0.00236221 0.0318898 0 0.0330709 -0.00236221 0.0318898 -0.0011811 0.0330709 -0.00236221 0.0330709 -0.0011811 0.0318898 -0.0011811 0.0330709 -0.0011811 0.0318898 -0.0011811 0.0330709 -0.00236221 0.0318898 -0.0011811 0.0318898 -0.00236221 0.0330709 0 0.0318898 -0.00236221 0.0318898 -0.0011811 0.0318898 -0.0011811 0.0259843 0 0.00590552 -0.00236221 0.0318898 -0.0011811 0.0318898 -0.0011811 0.0330709 -0.0011811 0.0318898 -0.00236221 0.0318898 -0.0011811 0.0318898 -0.00236221 0.0307087 0 0.0318898 -0.00236221 0.0330709 -0.0011811 0.0307087 -0.0011811 0.0318898 -0.0011811 0.0318898 -0.0011811 0.0318898 -0.00236221 0.0307087 -0.0011811 0.0318898 -0.00236221 0.0318898 0 0.0188977 0 0.011811 -0.00236221 0.0307087 -0.0011811 0.0318898 -0.00236221 0.0307087 -0.0011811 0.0318898 -0.0011811 0.0307087 -0.0011811 0.0318898 -0.0011811 0.0307087 -0.00236221 0.0307087 -0.0011811 0.0307087 -0.0011811 0.0318898 -0.0011811 0.0307087 -0.00236221 0.0307087 -0.0011811 0.0307087 -0.0011811 0.0318898 -0.0011811 0.0295276 -0.00236221 0.0307087 0 0.0141732 -0.0011811 0.0165354 -0.0011811 0.0307087 -0.0011811 0.0307087 -0.0011811 0.0307087 -0.00236221 0.0307087 -0.0011811 0.0307087 -0.00236221 0.0295276 0 0.0307087 -0.00236221 0.0307087 -0.0011811 0.0307087 -0.0011811 0.0295276 -0.0011811 0.0295276 -0.00236221 0.0307087 -0.0011811 0.0307087 -0.00472441 0.0980316 -0.0188977 0.373229 -0.00708662 0.125197 -0.0177165 0.336614 -0.00826772 0.15c-0.38504,7.07008 -0.701575,11.3138 -6.88583,15.3992l-0.194882 0.127559 -0.0413386 0.0259843 -0.284646 0.179528 -0.0141732 0.00944883 -0.103937 0.0649607 -0.248032 0.153543 -0.00236221 0.0011811 -0.262205 0.158268 -0.0992127 0.0590552 -0.0649607 0.0389764 -0.309449 0.18189 -0.0448819 0.0259843 -0.341339 0.194882 -0.0236221 0.0129921 -0.375591 0.210236 0 0.0106299 0 0.0106299 0.0011811 0.0271654 0.00472441 0.0791339 0.00590552 0.0413386 0.0106299 0.0661418 0.0153543 0.0602363 0.011811 0.0472441 0.0212599 0.056693 0.0212599 0.0590552 0.00354331 0.00590552 0.0425197 0.090945 0.00944883 0.0188977 0.0200788 0.0330709 0.0413386 0.0720473 0.011811 0.0165354 0.0614174 0.0885827 0.00354331 0.00472441 0.0708662 0.0897638 0.0129921 0.0165354 0.0791339 0.0897638 0.0153543 0.0165354 0.0885827 0.0885827 0.0165354 0.0165354 0.0956694 0.0885827 0.0177165 0.0153543 0.105118 0.0885827 0.121654 0.0980316 0.00826772 0.00708662 0.0188977 0.0141732 0.120473 0.0885827 0.0200788 0.0141732 0.127559 0.0885827 0.0200788 0.0129921 0.134646 0.0885827 0.0212599 0.0141732 0.142913 0.0874016 0.170079 0.100394 0.0212599 0.0141732 0.155906 0.0874016 0.022441 0.011811 0.16063 0.0885827 0.0236221 0.011811 0.166536 0.0874016 0.0236221 0.011811 0.172441 0.0874016 0.0236221 0.0129921 0.178347 0.0862205 0.0236221 0.011811 0.184252 0.0874016 0.0236221 0.0106299 0.188977 0.0874016 0.0236221 0.0106299 0.193701 0.0874016 0.022441 0.0106299 0.199606 0.0874016 0.022441 0.00944883 0.20315 0.0874016 0.022441 0.0106299 0.206693 0.0862205 0.022441 0.0106299 0.210236 0.0862205 0.022441 0.0106299 0.21378 0.0862205 0.0212599 0.00944883 0.218504 0.0874016 0.0212599 0.00944883 0.219685 0.0885827 0.0212599 0.00708662 0.223229 0.0885827 0.0200788 0.00826772 0.225591 0.0874016 0.0200788 0.00826772 0.226772 0.0885827 0.0200788 0.00826772 0.227953 0.0885827 0.0188977 0.00708662 0.231496 0.0885827 0.0177165 0.00708662 0.232677 0.0885827 0.0177165 0.00708662 0.232677 0.0897638 0.0177165 0.00590552 0.232677 0.090945 0.0165354 0.00590552 0.233858 0.0897638 0.0153543 0.00590552 0.233858 0.0897638 0.0153543 0.00708662 0.233858 0.0897638 0.0141732 0.00590552 0.232677 0.090945 0.0141732 0.00590552 0.232677 0.0921261 0.011811 0.00472441 0.231496 0.0921261 0.011811 0.00472441 0.231496 0.0921261 0.0106299 0.00472441 0.227953 0.0921261 0.00944883 0.00590552 0.226772 0.0933072 0.00944883 0.00354331 0.22441 0.0944883 0.00826772 0.00354331 0.220866 0.0944883 0.00826772 0.00354331 0.218504 0.0944883 0.00708662 0.00354331 0.214961 0.0968505 0.00590552 0.00236221 0.211417 0.0968505 0.00590552 0.00236221 0.206693 0.0968505 0.00472441 0.00354331 0.204331 0.0968505 0.00354331 0.00236221 0.198425 0.0992127 0.00354331 0.0011811 0.193701 0.0992127 0.00236221 0.00236221 0.188977 0.100394 0.0011811 0 0.183071 0.101575 0.0011811 0 0.175984 0.102756 0.0011811 0 0.17126 0.102756 0 0.0011811 0.162992 0.103937c5.5689,3.62717 17.2949,26.6823 25.7268,27.9343 0.796064,0.11811 1.69725,-0.0696851 2.67284,-0.490158 4.46103,-2.62914 4.68307,-19.9807 18.1488,-28.1268 8.54292,-5.16733 18.2551,-11.9835 23.2169,-16.5638l0.0661418 -0.0614174 0.011811 -0.011811 0.817323 -0.774804 0.146457 -0.140551c0.242126,-0.233858 0.484252,-0.468898 0.722835,-0.705119l0.0708662 -0.068504 0.0968505 -0.0968505 0.752363 -0.755906 0.00354331 -0.00354331 0.011811 -0.011811 0.0271654 -0.0283465c0.271654,-0.276378 0.542126,-0.555119 0.810237,-0.83504l0.0401575 -0.0425197 0.211417 -0.225591c-19.7622,17.3268 -40.2874,9.913 -55.9193,-1.96181 -15.489,-11.7673 -26.1732,-27.9118 -26.5512,-28.6996z"/>
  <path class="fil10" d="M1009.27 785.129c-2.0126,-5.89489 -24.1193,-13.141 -17.9669,16.1445 0.714567,3.40276 6.62245,14.6764 16.911,15.1063 10.6713,0.444095 4.10433,-21.078 1.05591,-31.2508z"/>
  <path class="fil9" d="M998.433 779.663l8.23347 -34.4032c0.244488,7.92402 6.91536,56.1934 12.1725,60.5611 -11.1378,3 -13.4032,-27.5587 -20.4059,-26.1579z"/>
  <path class="fil11" d="M689.163 714.616c-2.1378,3.3567 -6.59292,4.34292 -9.94961,2.20512 -3.35551,-2.1378 -4.34292,-6.59292 -2.20394,-9.94843 53.2229,-83.6186 110.362,-143.841 168.815,-183.38 63.2965,-42.815 128.173,-61.4516 191.368,-59.3304 62.2524,2.08937 122.685,24.3201 178.204,63.4182 56.178,39.5622 107.368,96.4513 150.325,167.234 2.05984,3.40276 0.972048,7.83308 -2.43071,9.89292 -3.40158,2.06103 -7.8319,0.972048 -9.89174,-2.43071 -41.8902,-69.0237 -91.7139,-124.433 -146.313,-162.882 -53.2619,-37.5083 -111.036,-58.8272 -170.346,-60.8186 -60.1819,-2.01969 -122.153,15.8551 -182.834,56.9008 -56.9126,38.4969 -112.663,97.3182 -164.744,179.14z"/>
 </g>
</svg>
